<svg width="279" height="22" viewBox="0 0 279 22" fill="none" xmlns="http://www.w3.org/2000/svg">
<path d="M22.5353 18.7818C22.5353 19.2303 22.3344 19.6159 21.9324 19.9388C21.5305 20.2617 21.0503 20.4232 20.492 20.4232H20.2911C19.7328 20.4232 19.2527 20.2617 18.8507 19.9388C18.4488 19.6159 18.2478 19.2303 18.2478 18.7818V11.6512C18.2478 11.2027 18.0468 10.817 17.6449 10.4941C17.2429 10.1712 16.7628 10.0098 16.2045 10.0098H8.56729C8.00902 10.0098 7.52888 10.1712 7.12692 10.4941C6.72496 10.817 6.52402 11.2027 6.52402 11.6512V18.7818C6.52402 19.2303 6.32301 19.6159 5.92105 19.9388C5.51911 20.2617 5.03899 20.4232 4.48072 20.4232H4.27974C3.72146 20.4232 3.24135 20.2617 2.83939 19.9388C2.43743 19.6159 2.23645 19.2303 2.23645 18.7818V1.88356C2.23645 1.43509 2.43743 1.04941 2.83939 0.726517C3.24135 0.40362 3.72146 0.242172 4.27974 0.242172H4.48072C5.03899 0.242172 5.51911 0.40362 5.92105 0.726517C6.32301 1.04941 6.52402 1.43509 6.52402 1.88356V7.93787C6.52402 8.38633 6.72496 8.772 7.12692 9.0949C7.52888 9.41779 8.00902 9.57927 8.56729 9.57927H16.2045C16.7628 9.57927 17.2429 9.41779 17.6449 9.0949C18.0468 8.772 18.2478 8.38633 18.2478 7.93787V1.88356C18.2478 1.43509 18.4488 1.04941 18.8507 0.726517C19.2527 0.40362 19.7328 0.242172 20.2911 0.242172H20.492C21.0503 0.242172 21.5305 0.40362 21.9324 0.726517C22.3344 1.04941 22.5353 1.43509 22.5353 1.88356V18.7818ZM45.648 0.484344C45.648 0.322896 45.7595 0.242172 45.9828 0.242172C46.184 0.242172 46.2844 0.322896 46.2844 0.484344V12.5122C46.2844 15.221 45.5251 17.257 44.0066 18.6204C42.4881 19.9837 40.2103 20.6654 37.1733 20.6654C31.0993 20.6654 28.0623 17.9925 28.0623 12.6468V1.88356C28.0623 1.43509 28.2632 1.04941 28.6652 0.726517C29.0672 0.40362 29.5473 0.242172 30.1056 0.242172H30.3065C30.8648 0.242172 31.3449 0.40362 31.7469 0.726517C32.1488 1.04941 32.3498 1.43509 32.3498 1.88356V12.0279C32.3498 14.7366 32.7518 16.7727 33.5557 18.136C34.3596 19.4993 35.5655 20.181 37.1733 20.181C42.8232 20.181 45.648 17.5889 45.648 12.4046V0.484344ZM53.4192 20.1541C53.4192 20.3335 53.3184 20.4232 53.1176 20.4232C52.8943 20.4232 52.7825 20.3335 52.7825 20.1541V1.88356C52.7825 1.43509 52.9837 1.04941 53.3856 0.726517C53.7876 0.40362 54.2678 0.242172 54.8259 0.242172H56.1993C56.5566 0.242172 56.925 0.349804 57.3048 0.565068C57.7068 0.762394 57.9747 0.995597 58.1087 1.26468L63.9037 12.3239C64.1045 12.7185 64.4282 12.9966 64.8748 13.158C65.3215 13.3015 65.757 13.3374 66.1811 13.2657C66.6277 13.1939 67.0186 13.0235 67.3537 12.7544C67.6885 12.4674 67.8561 12.1086 67.8561 11.6781V0.484344C67.8561 0.322896 67.9676 0.242172 68.1913 0.242172C68.3921 0.242172 68.4925 0.322896 68.4925 0.484344V18.7818C68.4925 19.2303 68.2916 19.6159 67.8897 19.9388C67.4877 20.2617 67.0075 20.4232 66.4491 20.4232H64.7408C64.3835 20.4232 64.0041 20.3245 63.6021 20.1272C63.2223 19.912 62.9654 19.6698 62.8318 19.4007L57.3716 8.98727C57.1708 8.59262 56.8471 8.32356 56.4005 8.18005C55.9539 8.01858 55.5072 7.97374 55.0606 8.0455C54.6362 8.11725 54.2567 8.29664 53.9216 8.58366C53.5864 8.85274 53.4192 9.20253 53.4192 9.63306V20.1541ZM86.7481 9.79453C86.5695 9.79453 86.4802 9.72278 86.4802 9.57927C86.4802 9.43576 86.5695 9.36401 86.7481 9.36401H92.7775C93.3356 9.36401 93.8158 9.52543 94.2178 9.84832C94.6197 10.1712 94.8209 10.5569 94.8209 11.0054V16.8444C94.8209 17.0238 94.7205 17.266 94.5193 17.5709C94.3407 17.858 94.162 18.0553 93.9834 18.1629C92.7328 18.9343 91.4377 19.5442 90.0978 19.9927C88.7801 20.4411 87.5185 20.6654 86.3126 20.6654C84.3253 20.6654 82.5163 20.4232 80.8863 19.9388C79.256 19.4366 77.8604 18.737 76.6992 17.84C75.5601 16.9251 74.6669 15.8309 74.0195 14.5572C73.3942 13.2836 73.0816 11.8754 73.0816 10.3327C73.0816 8.78997 73.3942 7.38177 74.0195 6.10812C74.6669 4.83448 75.5601 3.74917 76.6992 2.85224C77.8604 1.93738 79.256 1.23777 80.8863 0.753425C82.5163 0.251142 84.3253 0 86.3126 0C86.9157 0 87.541 0.116601 88.1884 0.349804C88.8583 0.565068 89.5061 0.870026 90.1314 1.26468C90.7788 1.65933 91.4041 2.14367 92.0072 2.71771C92.6324 3.29175 93.202 3.9196 93.7154 4.60127C93.7379 4.63715 93.7601 4.69097 93.7822 4.76272C93.8047 4.83448 93.8047 4.87934 93.7822 4.89725L93.6486 4.97798L93.5143 5.05872C93.4699 5.07663 93.4138 5.06768 93.347 5.0318C93.2799 4.99592 93.2352 4.96005 93.2131 4.92417C92.7218 4.2425 92.1858 3.63258 91.6052 3.09442C91.0246 2.53832 90.4329 2.06295 89.8298 1.6683C89.2267 1.27365 88.6239 0.968689 88.0212 0.753425C87.4181 0.538161 86.8485 0.430528 86.3126 0.430528C85.0174 0.430528 83.834 0.672701 82.7621 1.15705C81.7124 1.62345 80.8081 2.28718 80.0488 3.14824C79.2896 4.0093 78.6979 5.04974 78.2734 6.26957C77.8715 7.4894 77.6707 8.84376 77.6707 10.3327C77.6707 11.8216 77.8715 13.176 78.2734 14.3958C78.6979 15.6156 79.2896 16.6561 80.0488 17.5171C80.8081 18.3782 81.7124 19.0509 82.7621 19.5352C83.834 20.0016 85.0174 20.2348 86.3126 20.2348C87.407 20.2348 88.5682 20.0285 89.7962 19.6159C91.0246 19.1854 92.2305 18.6114 93.4139 17.8938C93.5925 17.7683 93.7601 17.5709 93.9166 17.3019C94.0952 17.0148 94.1845 16.7816 94.1845 16.6023V11.4359C94.1845 10.9874 93.9834 10.6017 93.5814 10.2789C93.1795 9.95595 92.6993 9.79453 92.1412 9.79453H86.7481ZM116.091 19.0778C116.158 19.1675 116.214 19.2572 116.259 19.3469C116.325 19.4186 116.381 19.4993 116.426 19.5891C116.493 19.6787 116.56 19.7684 116.627 19.8581L116.828 20.1272C116.873 20.199 116.873 20.2707 116.828 20.3425C116.784 20.3963 116.716 20.4232 116.627 20.4232H113.311C113.02 20.4232 112.686 20.3335 112.306 20.1541C111.926 19.9747 111.658 19.7864 111.502 19.5891L106.88 12.9966C106.589 12.584 106.578 12.1983 106.846 11.8395C107.114 11.4628 107.55 11.2745 108.152 11.2745H109.392C109.682 11.2745 110.017 11.3642 110.396 11.5435C110.776 11.7229 111.044 11.9113 111.2 12.1086L116.091 19.0778ZM103.53 18.7818C103.53 19.2303 103.329 19.6159 102.927 19.9388C102.525 20.2617 102.045 20.4232 101.487 20.4232H101.285C100.727 20.4232 100.247 20.2617 99.8452 19.9388C99.4432 19.6159 99.2424 19.2303 99.2424 18.7818V1.88356C99.2424 1.43509 99.4432 1.04941 99.8452 0.726517C100.247 0.40362 100.727 0.242172 101.285 0.242172H107.248C113.121 0.242172 116.057 2.26027 116.057 6.29646C116.057 9.57927 113.121 11.2206 107.248 11.2206H105.406C104.87 11.2206 104.423 11.3642 104.066 11.6512C103.709 11.9382 103.53 12.288 103.53 12.7006V18.7818ZM103.53 9.31016C103.53 9.72278 103.709 10.0816 104.066 10.3865C104.445 10.6735 104.892 10.817 105.406 10.817H107.282C110.274 10.817 111.77 9.31016 111.77 6.29646C111.77 2.52935 110.251 0.645793 107.214 0.645793H105.372C104.858 0.645793 104.423 0.789302 104.066 1.07632C103.709 1.36334 103.53 1.71314 103.53 2.12573V9.31016ZM122.054 0.242172C122.165 0.242172 122.277 0.27805 122.388 0.349804C122.522 0.40362 122.612 0.466406 122.656 0.538161C122.746 0.663731 122.835 0.789302 122.924 0.914873C123.014 1.04044 123.092 1.15705 123.159 1.26468C123.248 1.39025 123.326 1.50685 123.393 1.61448L129.222 10.0905C129.311 10.2161 129.456 10.2789 129.657 10.2789C129.836 10.2609 129.97 10.1892 130.059 10.0636L136.055 1.23777C136.144 1.1122 136.267 0.923842 136.423 0.672701C136.602 0.421559 136.703 0.27805 136.725 0.242172C136.77 0.188356 136.814 0.179387 136.859 0.215264C136.904 0.233203 136.971 0.242172 137.06 0.242172C137.261 0.242172 137.306 0.313927 137.194 0.457436L130.629 10.0636C130.584 10.1174 130.528 10.252 130.461 10.4672C130.394 10.6825 130.361 10.817 130.361 10.8709V18.7818C130.361 19.2303 130.16 19.6159 129.758 19.9388C129.356 20.2617 128.875 20.4232 128.317 20.4232H128.116C127.558 20.4232 127.078 20.2617 126.676 19.9388C126.274 19.6159 126.073 19.2303 126.073 18.7818V11.9741C126.073 11.9203 126.04 11.7857 125.972 11.5704C125.906 11.3552 125.85 11.2206 125.805 11.1668L119.106 1.58757C119.061 1.51582 119.017 1.44406 118.972 1.37231C118.905 1.30055 118.838 1.21983 118.771 1.13014C118.726 1.04044 118.67 0.95075 118.603 0.861057L118.402 0.538161C118.335 0.466406 118.324 0.40362 118.369 0.349804C118.414 0.27805 118.492 0.242172 118.603 0.242172H122.054ZM154.009 18.7818C154.009 19.2303 153.808 19.6159 153.406 19.9388C153.004 20.2617 152.524 20.4232 151.966 20.4232H151.765C151.206 20.4232 150.727 20.2617 150.324 19.9388C149.923 19.6159 149.722 19.2303 149.722 18.7818V1.88356C149.722 1.43509 149.923 1.04941 150.324 0.726517C150.727 0.40362 151.206 0.242172 151.765 0.242172H157.727C163.6 0.242172 166.537 2.26027 166.537 6.29646C166.537 9.93804 163.6 11.7588 157.727 11.7588H155.885C155.349 11.7588 154.902 11.9023 154.545 12.1893C154.188 12.4764 154.009 12.8261 154.009 13.2388V18.7818ZM154.009 9.84832C154.009 10.2609 154.188 10.6197 154.545 10.9246C154.925 11.2117 155.371 11.3552 155.885 11.3552H157.761C160.753 11.3552 162.249 9.66894 162.249 6.29646C162.249 2.52935 160.731 0.645793 157.694 0.645793H155.851C155.338 0.645793 154.902 0.789302 154.545 1.07632C154.188 1.36334 154.009 1.71314 154.009 2.12573V9.84832ZM187.204 19.9927C187.383 19.9927 187.472 20.0644 187.472 20.2079C187.472 20.3514 187.383 20.4232 187.204 20.4232H172.667C172.108 20.4232 171.628 20.2617 171.226 19.9388C170.825 19.6159 170.623 19.2303 170.623 18.7818V1.88356C170.623 1.43509 170.825 1.04941 171.226 0.726517C171.628 0.40362 172.108 0.242172 172.667 0.242172H186.702C186.88 0.242172 186.97 0.313927 186.97 0.457436C186.97 0.600946 186.88 0.672701 186.702 0.672701H176.954C176.396 0.672701 175.916 0.834149 175.514 1.15705C175.112 1.47994 174.911 1.86562 174.911 2.31409V8.18005C174.911 8.62849 175.112 9.01419 175.514 9.33708C175.916 9.65998 176.396 9.82143 176.954 9.82143H186.065C186.222 9.82143 186.3 9.8842 186.3 10.0098C186.3 10.1353 186.222 10.1981 186.065 10.1981H176.954C176.396 10.1981 175.916 10.3596 175.514 10.6825C175.112 11.0054 174.911 11.391 174.911 11.8395V18.3513C174.911 18.7998 175.112 19.1854 175.514 19.5083C175.916 19.8312 176.396 19.9927 176.954 19.9927H187.204ZM195.645 10.3327C195.645 11.8216 195.813 13.176 196.148 14.3958C196.505 15.6156 196.996 16.6561 197.622 17.5171C198.247 18.3782 198.995 19.0509 199.866 19.5352C200.759 20.0016 201.742 20.2348 202.814 20.2348C203.886 20.2348 204.857 20.0016 205.728 19.5352C206.621 19.0509 207.38 18.3782 208.005 17.5171C208.631 16.6561 209.111 15.6156 209.446 14.3958C209.803 13.176 209.982 11.8216 209.982 10.3327C209.982 8.91551 209.792 7.60602 209.413 6.4041C209.055 5.20223 208.553 4.16179 207.905 3.28276C207.28 2.38584 206.532 1.68624 205.661 1.18395C204.79 0.68167 203.841 0.430528 202.814 0.430528C201.786 0.430528 200.837 0.68167 199.966 1.18395C199.095 1.68624 198.336 2.38584 197.689 3.28276C197.063 4.16179 196.561 5.20223 196.181 6.4041C195.824 7.60602 195.645 8.91551 195.645 10.3327ZM191.056 10.3327C191.056 8.86172 191.347 7.49838 191.927 6.24268C192.53 4.969 193.356 3.87477 194.406 2.95987C195.478 2.02707 196.729 1.30055 198.158 0.780333C199.587 0.260111 201.139 0 202.814 0C204.488 0 206.04 0.260111 207.47 0.780333C208.899 1.30055 210.138 2.02707 211.188 2.95987C212.259 3.87477 213.086 4.969 213.666 6.24268C214.269 7.49838 214.571 8.86172 214.571 10.3327C214.571 11.8754 214.292 13.2836 213.733 14.5572C213.175 15.8309 212.382 16.9251 211.355 17.84C210.328 18.737 209.088 19.4366 207.637 19.9388C206.185 20.4232 204.578 20.6654 202.814 20.6654C201.049 20.6654 199.441 20.4232 197.99 19.9388C196.538 19.4366 195.299 18.737 194.272 17.84C193.245 16.9251 192.452 15.8309 191.894 14.5572C191.335 13.2836 191.056 11.8754 191.056 10.3327ZM223.615 18.7818C223.615 19.2303 223.414 19.6159 223.012 19.9388C222.61 20.2617 222.13 20.4232 221.572 20.4232H221.371C220.812 20.4232 220.332 20.2617 219.93 19.9388C219.528 19.6159 219.327 19.2303 219.327 18.7818V1.88356C219.327 1.43509 219.528 1.04941 219.93 0.726517C220.332 0.40362 220.812 0.242172 221.371 0.242172H227.333C233.206 0.242172 236.143 2.26027 236.143 6.29646C236.143 9.93804 233.206 11.7588 227.333 11.7588H225.491C224.955 11.7588 224.508 11.9023 224.151 12.1893C223.794 12.4764 223.615 12.8261 223.615 13.2388V18.7818ZM223.615 9.84832C223.615 10.2609 223.794 10.6197 224.151 10.9246C224.53 11.2117 224.977 11.3552 225.491 11.3552H227.367C230.359 11.3552 231.855 9.66894 231.855 6.29646C231.855 2.52935 230.337 0.645793 227.299 0.645793H225.457C224.943 0.645793 224.508 0.789302 224.151 1.07632C223.794 1.36334 223.615 1.71314 223.615 2.12573V9.84832ZM255.169 19.9927C255.347 19.9927 255.437 20.0644 255.437 20.2079C255.437 20.3514 255.347 20.4232 255.169 20.4232H242.306C241.748 20.4232 241.268 20.2617 240.866 19.9388C240.464 19.6159 240.263 19.2303 240.263 18.7818V1.88356C240.263 1.43509 240.464 1.04941 240.866 0.726517C241.268 0.40362 241.748 0.242172 242.306 0.242172H242.507C243.065 0.242172 243.545 0.40362 243.947 0.726517C244.349 1.04941 244.55 1.43509 244.55 1.88356V18.3513C244.55 18.7998 244.751 19.1854 245.153 19.5083C245.555 19.8312 246.035 19.9927 246.593 19.9927H255.169ZM275.936 19.9927C276.115 19.9927 276.204 20.0644 276.204 20.2079C276.204 20.3514 276.115 20.4232 275.936 20.4232H261.399C260.841 20.4232 260.36 20.2617 259.958 19.9388C259.557 19.6159 259.356 19.2303 259.356 18.7818V1.88356C259.356 1.43509 259.557 1.04941 259.958 0.726517C260.36 0.40362 260.841 0.242172 261.399 0.242172H275.434C275.613 0.242172 275.702 0.313927 275.702 0.457436C275.702 0.600946 275.613 0.672701 275.434 0.672701H265.687C265.128 0.672701 264.648 0.834149 264.246 1.15705C263.844 1.47994 263.643 1.86562 263.643 2.31409V8.18005C263.643 8.62849 263.844 9.01419 264.246 9.33708C264.648 9.65998 265.128 9.82143 265.687 9.82143H274.798C274.954 9.82143 275.032 9.8842 275.032 10.0098C275.032 10.1353 274.954 10.1981 274.798 10.1981H265.687C265.128 10.1981 264.648 10.3596 264.246 10.6825C263.844 11.0054 263.643 11.391 263.643 11.8395V18.3513C263.643 18.7998 263.844 19.1854 264.246 19.5083C264.648 19.8312 265.128 19.9927 265.687 19.9927H275.936Z" fill="white"/>
</svg>
