<svg width="768" height="73" fill="none" xmlns="http://www.w3.org/2000/svg"><path d="M57.156 66.281c0 1.563-.562 2.906-1.687 4.031C54.344 71.439 53 72 51.437 72h-.562c-1.563 0-2.906-.563-4.031-1.688-1.125-1.124-1.688-2.468-1.688-4.03V41.437c0-1.563-.562-2.907-1.687-4.032S41 35.72 39.437 35.72H18.064c-1.563 0-2.907.562-4.032 1.687s-1.687 2.469-1.687 4.032V66.28c0 1.563-.563 2.906-1.688 4.031C9.531 71.439 8.187 72 6.625 72h-.563c-1.562 0-2.906-.563-4.03-1.688C.905 69.189.343 67.844.343 66.282V7.405c0-1.562.562-2.906 1.687-4.031C3.156 2.25 4.5 1.687 6.062 1.687h.563c1.563 0 2.906.563 4.031 1.688 1.125 1.125 1.688 2.469 1.688 4.031V28.5c0 1.563.562 2.906 1.687 4.031 1.125 1.125 2.469 1.688 4.031 1.688h21.375c1.563 0 2.907-.563 4.032-1.688s1.687-2.468 1.687-4.031V7.406c0-1.562.563-2.906 1.688-4.031 1.125-1.125 2.468-1.688 4.031-1.688h.563c1.562 0 2.906.563 4.03 1.688 1.126 1.125 1.688 2.469 1.688 4.031v58.875zm64.688-63.75c0-.562.312-.844.937-.844.563 0 .844.282.844.844v41.907c0 9.437-2.125 16.53-6.375 21.28s-10.625 7.126-19.125 7.126c-17 0-25.5-9.313-25.5-27.938v-37.5c0-1.562.563-2.906 1.688-4.031 1.124-1.125 2.468-1.688 4.03-1.688h.563c1.563 0 2.906.563 4.031 1.688 1.126 1.125 1.688 2.469 1.688 4.031V42.75c0 9.438 1.125 16.531 3.375 21.281s5.625 7.125 10.125 7.125c15.813 0 23.719-9.031 23.719-27.094V2.532zm21.75 68.531c0 .626-.282.938-.844.938-.625 0-.938-.313-.938-.938V7.407c0-1.562.563-2.906 1.688-4.031 1.125-1.125 2.469-1.688 4.031-1.688h3.844c1 0 2.031.375 3.094 1.125 1.125.688 1.875 1.5 2.25 2.438l16.219 38.531c.562 1.375 1.468 2.344 2.718 2.907 1.25.5 2.469.624 3.656.374 1.25-.25 2.344-.843 3.282-1.78.937-1 1.406-2.25 1.406-3.75v-39c0-.563.312-.845.938-.845.562 0 .843.282.843.844v63.75c0 1.563-.562 2.906-1.687 4.031-1.125 1.126-2.469 1.688-4.032 1.688h-4.781c-1 0-2.062-.344-3.187-1.031-1.063-.75-1.782-1.594-2.156-2.531l-15.282-36.282c-.562-1.375-1.468-2.312-2.718-2.812-1.25-.563-2.5-.719-3.75-.469-1.188.25-2.25.875-3.188 1.875-.938.938-1.406 2.156-1.406 3.656v36.657zm93.281-36.093c-.5 0-.75-.25-.75-.75s.25-.75.75-.75h16.875c1.562 0 2.906.562 4.031 1.687 1.125 1.125 1.688 2.469 1.688 4.032V59.53c0 .625-.281 1.469-.844 2.532-.5 1-1 1.687-1.5 2.062-3.5 2.688-7.125 4.813-10.875 6.375-3.688 1.563-7.219 2.344-10.594 2.344-5.562 0-10.625-.844-15.187-2.531-4.563-1.75-8.469-4.188-11.719-7.313-3.188-3.188-5.688-7-7.5-11.438-1.75-4.437-2.625-9.343-2.625-14.718s.875-10.282 2.625-14.719c1.812-4.438 4.312-8.219 7.5-11.344 3.25-3.187 7.156-5.625 11.719-7.312 4.562-1.75 9.625-2.625 15.187-2.625 1.688 0 3.438.406 5.25 1.219 1.875.75 3.688 1.812 5.438 3.187 1.812 1.375 3.562 3.063 5.25 5.063 1.75 2 3.344 4.187 4.781 6.562.063.125.125.313.187.563.063.25.063.406 0 .468l-.374.282-.376.28c-.124.063-.281.032-.468-.093-.188-.125-.313-.25-.375-.375-1.375-2.375-2.875-4.5-4.5-6.375-1.625-1.938-3.281-3.594-4.969-4.969-1.688-1.375-3.375-2.437-5.062-3.187-1.688-.75-3.282-1.125-4.782-1.125-3.625 0-6.937.844-9.937 2.531-2.938 1.625-5.469 3.938-7.594 6.938-2.125 3-3.781 6.624-4.969 10.874-1.125 4.25-1.687 8.97-1.687 14.157 0 5.187.562 9.906 1.687 14.156 1.188 4.25 2.844 7.875 4.969 10.875 2.125 3 4.656 5.344 7.594 7.031 3 1.625 6.312 2.438 9.937 2.438 3.063 0 6.313-.719 9.75-2.156 3.438-1.5 6.813-3.5 10.125-6 .5-.438.969-1.126 1.407-2.063.5-1 .75-1.813.75-2.438v-18c0-1.562-.563-2.906-1.688-4.03-1.125-1.126-2.469-1.688-4.031-1.688h-15.094zM319 67.312c.188.313.344.626.469.938.187.25.343.531.469.844l.562.937.562.938c.126.25.126.5 0 .75-.124.187-.312.281-.562.281h-9.281c-.813 0-1.75-.313-2.813-.938-1.062-.624-1.812-1.28-2.25-1.968l-12.937-22.969c-.813-1.438-.844-2.781-.094-4.031.75-1.313 1.969-1.969 3.656-1.969h3.469c.812 0 1.75.313 2.812.938 1.063.624 1.813 1.28 2.25 1.968L319 67.313zm-35.156-1.03c0 1.562-.563 2.906-1.688 4.03-1.125 1.126-2.468 1.688-4.031 1.688h-.563c-1.562 0-2.906-.563-4.031-1.688-1.125-1.124-1.687-2.468-1.687-4.03V7.405c0-1.562.562-2.906 1.687-4.031 1.125-1.125 2.469-1.688 4.031-1.688h16.688c16.438 0 24.656 7.032 24.656 21.094 0 11.438-8.218 17.157-24.656 17.157h-5.156c-1.5 0-2.75.5-3.75 1.5s-1.5 2.218-1.5 3.656V66.28zm0-33c0 1.437.5 2.687 1.5 3.75 1.062 1 2.312 1.5 3.75 1.5h5.25c8.375 0 12.562-5.25 12.562-15.75 0-13.126-4.25-19.688-12.75-19.688H289c-1.438 0-2.656.5-3.656 1.5s-1.5 2.218-1.5 3.656v25.031zm51.844-31.594c.312 0 .624.125.937.375.375.187.625.406.75.656l.75 1.312c.25.438.469.844.656 1.219.25.438.469.844.657 1.219L355.75 36c.25.438.656.656 1.219.656.5-.062.875-.312 1.125-.75l16.781-30.75c.25-.437.594-1.093 1.031-1.968.5-.876.782-1.376.844-1.5.125-.188.25-.22.375-.094.125.062.313.093.563.093.562 0 .687.25.374.75l-18.374 33.47c-.126.187-.282.656-.469 1.406-.188.75-.281 1.218-.281 1.406V66.28c0 1.563-.563 2.906-1.688 4.031-1.125 1.126-2.469 1.688-4.031 1.688h-.563c-1.562 0-2.906-.563-4.031-1.688-1.125-1.124-1.687-2.468-1.687-4.03v-23.72c0-.187-.094-.656-.282-1.406-.187-.75-.344-1.218-.468-1.406l-18.75-33.375-.376-.75c-.187-.25-.374-.531-.562-.844a6.509 6.509 0 00-.469-.937l-.562-1.125c-.188-.25-.219-.469-.094-.656.125-.25.344-.376.656-.376h9.657zm89.437 64.593c0 1.563-.563 2.906-1.687 4.031-1.126 1.126-2.469 1.688-4.032 1.688h-.562c-1.563 0-2.906-.563-4.032-1.688-1.124-1.124-1.687-2.468-1.687-4.03V7.405c0-1.562.563-2.906 1.687-4.031 1.126-1.125 2.469-1.688 4.032-1.688h16.687c16.438 0 24.657 7.032 24.657 21.094 0 12.688-8.219 19.032-24.657 19.032h-5.156c-1.5 0-2.75.5-3.75 1.5s-1.5 2.218-1.5 3.656V66.28zm0-31.125c0 1.438.5 2.688 1.5 3.75 1.063 1 2.313 1.5 3.75 1.5h5.25c8.375 0 12.563-5.875 12.563-17.625 0-13.125-4.25-19.687-12.75-19.687h-5.157c-1.437 0-2.656.5-3.656 1.5s-1.5 2.218-1.5 3.656v26.906zM518.031 70.5c.5 0 .75.25.75.75s-.25.75-.75.75h-40.687c-1.563 0-2.906-.563-4.032-1.688-1.124-1.124-1.687-2.468-1.687-4.03V7.405c0-1.562.563-2.906 1.687-4.031 1.126-1.125 2.469-1.688 4.032-1.688h39.281c.5 0 .75.25.75.75s-.25.75-.75.75h-27.281c-1.563 0-2.906.563-4.032 1.688-1.124 1.125-1.687 2.469-1.687 4.031v20.438c0 1.562.563 2.906 1.687 4.031 1.126 1.125 2.469 1.688 4.032 1.688h25.5c.437 0 .656.218.656.656 0 .437-.219.656-.656.656h-25.5c-1.563 0-2.906.563-4.032 1.688-1.124 1.124-1.687 2.468-1.687 4.03V64.78c0 1.563.563 2.906 1.687 4.031 1.126 1.126 2.469 1.688 4.032 1.688h28.687zm23.625-33.656c0 5.187.469 9.906 1.406 14.156 1 4.25 2.376 7.875 4.126 10.875 1.75 3 3.843 5.344 6.281 7.031 2.5 1.625 5.25 2.438 8.25 2.438s5.719-.813 8.156-2.438c2.5-1.687 4.625-4.031 6.375-7.031s3.094-6.625 4.031-10.875c1-4.25 1.5-8.969 1.5-14.156 0-4.938-.531-9.5-1.593-13.688-1-4.187-2.407-7.812-4.219-10.875-1.75-3.125-3.844-5.562-6.281-7.312-2.438-1.75-5.094-2.625-7.969-2.625s-5.531.875-7.969 2.625c-2.438 1.75-4.562 4.187-6.375 7.312-1.75 3.063-3.156 6.688-4.219 10.875-1 4.188-1.5 8.75-1.5 13.688zm-12.844 0c0-5.125.813-9.875 2.438-14.25 1.688-4.438 4-8.25 6.938-11.438 3-3.25 6.5-5.781 10.5-7.594 4-1.812 8.343-2.718 13.031-2.718 4.687 0 9.031.906 13.031 2.719 4 1.812 7.469 4.343 10.406 7.593 3 3.188 5.313 7 6.938 11.438 1.687 4.375 2.531 9.125 2.531 14.25 0 5.375-.781 10.281-2.344 14.718C590.719 56 588.5 59.813 585.625 63c-2.875 3.125-6.344 5.563-10.406 7.313-4.063 1.687-8.563 2.53-13.5 2.53-4.938 0-9.438-.843-13.5-2.53-4.063-1.75-7.531-4.188-10.407-7.313-2.874-3.188-5.093-7-6.656-11.438-1.562-4.437-2.344-9.343-2.344-14.718zm91.126 29.437c0 1.563-.563 2.906-1.688 4.031-1.125 1.126-2.469 1.688-4.031 1.688h-.563c-1.562 0-2.906-.563-4.031-1.688-1.125-1.124-1.687-2.468-1.687-4.03V7.405c0-1.562.562-2.906 1.687-4.031 1.125-1.125 2.469-1.688 4.031-1.688h16.688C646.781 1.688 655 8.72 655 22.782c0 12.688-8.219 19.032-24.656 19.032h-5.156c-1.5 0-2.75.5-3.75 1.5s-1.5 2.218-1.5 3.656v19.31zm0-31.125c0 1.438.5 2.688 1.5 3.75 1.062 1 2.312 1.5 3.75 1.5h5.25c8.374 0 12.562-5.875 12.562-17.625 0-13.125-4.25-19.687-12.75-19.687h-5.156c-1.438 0-2.656.5-3.656 1.5s-1.5 2.218-1.5 3.656v26.906zM708.25 70.5c.5 0 .75.25.75.75s-.25.75-.75.75h-36c-1.562 0-2.906-.563-4.031-1.688-1.125-1.124-1.688-2.468-1.688-4.03V7.405c0-1.562.563-2.906 1.688-4.031 1.125-1.125 2.469-1.688 4.031-1.688h.562c1.563 0 2.907.563 4.032 1.688s1.687 2.469 1.687 4.031V64.78c0 1.563.563 2.906 1.688 4.031 1.125 1.126 2.469 1.688 4.031 1.688h24zm58.125 0c.5 0 .75.25.75.75s-.25.75-.75.75h-40.687c-1.563 0-2.907-.563-4.032-1.688-1.125-1.124-1.687-2.468-1.687-4.03V7.405c0-1.562.562-2.906 1.687-4.031 1.125-1.125 2.469-1.688 4.032-1.688h39.281c.5 0 .75.25.75.75s-.25.75-.75.75h-27.281c-1.563 0-2.907.563-4.032 1.688s-1.687 2.469-1.687 4.031v20.438c0 1.562.562 2.906 1.687 4.031 1.125 1.125 2.469 1.688 4.032 1.688h25.5c.437 0 .656.218.656.656 0 .437-.219.656-.656.656h-25.5c-1.563 0-2.907.563-4.032 1.688-1.125 1.124-1.687 2.468-1.687 4.03V64.78c0 1.563.562 2.906 1.687 4.031 1.125 1.126 2.469 1.688 4.032 1.688h28.687z" fill="#fff"/></svg>